<?xml version="1.0" encoding="UTF-8" standalone="no"?>
<!-- Created with Inkscape (http://www.inkscape.org/) -->

<svg
   width="20mm"
   height="20mm"
   viewBox="0 0 20 20"
   version="1.1"
   id="svg5"
   inkscape:version="1.2.1 (9c6d41e410, 2022-07-14, custom)"
   sodipodi:docname="logo.svg"
   xmlns:inkscape="http://www.inkscape.org/namespaces/inkscape"
   xmlns:sodipodi="http://sodipodi.sourceforge.net/DTD/sodipodi-0.dtd"
   xmlns:xlink="http://www.w3.org/1999/xlink"
   xmlns="http://www.w3.org/2000/svg"
   xmlns:svg="http://www.w3.org/2000/svg">
  <sodipodi:namedview
     id="namedview7"
     pagecolor="#505050"
     bordercolor="#eeeeee"
     borderopacity="1"
     inkscape:showpageshadow="0"
     inkscape:pageopacity="0"
     inkscape:pagecheckerboard="0"
     inkscape:deskcolor="#505050"
     inkscape:document-units="mm"
     showgrid="false"
     inkscape:zoom="3.6264718"
     inkscape:cx="10.616379"
     inkscape:cy="69.626903"
     inkscape:window-width="1894"
     inkscape:window-height="1038"
     inkscape:window-x="10"
     inkscape:window-y="26"
     inkscape:window-maximized="1"
     inkscape:current-layer="layer1" />
  <defs
     id="defs2">
    <linearGradient
       inkscape:collect="always"
       id="linearGradient1755">
      <stop
         style="stop-color:#ffffff;stop-opacity:1;"
         offset="0"
         id="stop1751" />
      <stop
         style="stop-color:#cbe2f5;stop-opacity:1;"
         offset="1"
         id="stop1753" />
    </linearGradient>
    <linearGradient
       inkscape:collect="always"
       id="linearGradient1747">
      <stop
         style="stop-color:#ffffff;stop-opacity:1;"
         offset="0"
         id="stop1743" />
      <stop
         style="stop-color:#bacfe0;stop-opacity:1;"
         offset="1"
         id="stop1745" />
    </linearGradient>
    <inkscape:path-effect
       effect="fillet_chamfer"
       id="path-effect1213"
       is_visible="true"
       lpeversion="1"
       nodesatellites_param="F,0,0,1,0,1.3229167,0,1 @ F,0,0,1,0,1.3229167,0,1 @ F,0,0,1,0,1.3229167,0,1 @ F,0,0,1,0,1.3229167,0,1"
       unit="px"
       method="auto"
       mode="F"
       radius="5"
       chamfer_steps="1"
       flexible="false"
       use_knot_distance="true"
       apply_no_radius="true"
       apply_with_radius="true"
       only_selected="false"
       hide_knots="false" />
    <linearGradient
       inkscape:collect="always"
       id="linearGradient1012">
      <stop
         style="stop-color:#595b71;stop-opacity:1;"
         offset="0"
         id="stop1008" />
      <stop
         style="stop-color:#3c4f5f;stop-opacity:1;"
         offset="1"
         id="stop1010" />
    </linearGradient>
    <inkscape:path-effect
       effect="fillet_chamfer"
       id="path-effect392"
       is_visible="true"
       lpeversion="1"
       nodesatellites_param="F,0,0,1,0,5.2916667,0,1 @ F,0,0,1,0,5.2916667,0,1 @ F,0,0,1,0,5.2916667,0,1 @ F,0,0,1,0,5.2916667,0,1"
       unit="px"
       method="auto"
       mode="F"
       radius="20"
       chamfer_steps="1"
       flexible="false"
       use_knot_distance="true"
       apply_no_radius="true"
       apply_with_radius="true"
       only_selected="false"
       hide_knots="false" />
    <linearGradient
       inkscape:collect="always"
       xlink:href="#linearGradient1012"
       id="linearGradient1014"
       x1="37.965309"
       y1="42.663601"
       x2="54.194901"
       y2="60.030781"
       gradientUnits="userSpaceOnUse" />
    <inkscape:path-effect
       effect="fillet_chamfer"
       id="path-effect1213-3"
       is_visible="true"
       lpeversion="1"
       nodesatellites_param="F,0,0,1,0,1.3229167,0,1 @ F,0,0,1,0,1.3229167,0,1 @ F,0,0,1,0,1.3229167,0,1 @ F,0,0,1,0,1.3229167,0,1"
       unit="px"
       method="auto"
       mode="F"
       radius="5"
       chamfer_steps="1"
       flexible="false"
       use_knot_distance="true"
       apply_no_radius="true"
       apply_with_radius="true"
       only_selected="false"
       hide_knots="false" />
    <linearGradient
       inkscape:collect="always"
       xlink:href="#linearGradient1747"
       id="linearGradient1741"
       x1="41.39537"
       y1="45.712234"
       x2="48.692814"
       y2="56.458832"
       gradientUnits="userSpaceOnUse" />
    <linearGradient
       inkscape:collect="always"
       xlink:href="#linearGradient1755"
       id="linearGradient1749"
       x1="44.744534"
       y1="44.845051"
       x2="49.541759"
       y2="56.623955"
       gradientUnits="userSpaceOnUse" />
  </defs>
  <g
     inkscape:label="Layer 1"
     inkscape:groupmode="layer"
     id="layer1"
     transform="translate(-35.890064,-41.251156)">
    <path
       style="fill:url(#linearGradient1014);fill-opacity:1;stroke-width:0.264583"
       id="rect234"
       width="20"
       height="20"
       x="35.890064"
       y="41.251156"
       inkscape:path-effect="#path-effect392"
       d="m 41.181731,41.251156 h 9.416667 a 5.2916667,5.2916667 45 0 1 5.291666,5.291667 v 9.416666 a 5.2916667,5.2916667 135 0 1 -5.291666,5.291667 h -9.416667 a 5.2916667,5.2916667 45 0 1 -5.291667,-5.291667 v -9.416666 a 5.2916667,5.2916667 135 0 1 5.291667,-5.291667 z"
       sodipodi:type="rect" />
    <path
       id="rect1103-7"
       style="fill:url(#linearGradient1749);fill-opacity:1;stroke-width:0.290433"
       d="m 45.505382,45.04193 c -0.648494,-0.02938 -1.222494,0.416114 -1.354957,1.051615 h 1.018543 c 0.278791,-0.168136 0.609791,-0.227565 0.929659,-0.166914 l 0.871265,0.166914 h 1.597318 v 0.305925 l 1.259355,0.241329 c 0.717462,0.137618 1.187565,0.830741 1.050065,1.548226 l -1.3224,6.903454 c -0.09752,0.509064 -0.483346,0.914282 -0.98702,1.03663 l -0.684727,-0.05247 -2.902134,0.236952 3.417879,0.654741 c 0.717485,0.1375 1.410608,-0.332603 1.548226,-1.050065 l 1.606104,-8.384501 c 0.1375,-0.717485 -0.332603,-1.410608 -1.050065,-1.548226 l -4.809526,-0.921391 c -0.06192,-0.01187 -0.124607,-0.01929 -0.187585,-0.02222 z"
       sodipodi:nodetypes="ccccccccccccccccccc" />
    <path
       id="rect1103"
       style="fill:url(#linearGradient1741);fill-opacity:1;stroke-width:0.290433"
       d="m 42.686432,45.425886 a 1.3229167,1.3229167 0 0 0 -1.322917,1.322917 v 8.536946 a 1.3229167,1.3229167 0 0 0 1.322917,1.322917 h 4.896859 a 1.3229167,1.3229167 0 0 0 1.322917,-1.322917 v -8.536946 a 1.3229167,1.3229167 0 0 0 -1.322917,-1.322917 z m 0.560689,0.771012 h 3.795634 a 1.3229167,1.3229167 0 0 1 1.322917,1.322917 v 7.029028 a 1.3229167,1.3229167 0 0 1 -1.322917,1.322917 h -3.795634 a 1.3229167,1.3229167 0 0 1 -1.322916,-1.322917 v -7.029028 a 1.3229167,1.3229167 0 0 1 1.322916,-1.322917 z" />
  </g>
</svg>
